PathFileType	4	(X/Y/Z)	C:/Users/opensim2020/Desktop/walking_exp_matlab/subject06_walking17_straight_01.trc	
DataRate	CameraRate	NumFrames	NumMarkers	Units	OrigDataRate	OrigDataStartFrame	OrigNumFrames	
100.00	100.00	5	45	mm	100.00	981	305	
Frame#	Time	LFHD			RFHD			LBHD			RBHD			C7			T10			CLAV			STRN			RBAK			LSHO			LUPA			LELB			LFRM			LWRA			LWRB			LFIN			RSHO			RUPA			RELB			RFRM			RWRA			RWRB			RFIN			LASI			RASI			LPSI			RPSI			LTHI			LKNE			LTIB			LANK			LHEE			LTOE			RTHI			RKNE			RTIB			RANK			RHEE			RTOE			*39			*40			*41			*42			*43			*44			
		X1	Y1	Z1	X2	Y2	Z2	X3	Y3	Z3	X4	Y4	Z4	X5	Y5	Z5	X6	Y6	Z6	X7	Y7	Z7	X8	Y8	Z8	X9	Y9	Z9	X10	Y10	Z10	X11	Y11	Z11	X12	Y12	Z12	X13	Y13	Z13	X14	Y14	Z14	X15	Y15	Z15	X16	Y16	Z16	X17	Y17	Z17	X18	Y18	Z18	X19	Y19	Z19	X20	Y20	Z20	X21	Y21	Z21	X22	Y22	Z22	X23	Y23	Z23	X24	Y24	Z24	X25	Y25	Z25	X26	Y26	Z26	X27	Y27	Z27	X28	Y28	Z28	X29	Y29	Z29	X30	Y30	Z30	X31	Y31	Z31	X32	Y32	Z32	X33	Y33	Z33	X34	Y34	Z34	X35	Y35	Z35	X36	Y36	Z36	X37	Y37	Z37	X38	Y38	Z38	X39	Y39	Z39	X40	Y40	Z40	X41	Y41	Z41	X42	Y42	Z42	X43	Y43	Z43	X44	Y44	Z44	X45	Y45	Z45	

1	0.000	-1076.40955	-879.14233	1645.66248	-946.51105	-885.38458	1634.34631	-1082.92664	-1014.70294	1593.15674	-953.28912	-1017.65186	1587.19336	-1019.75720	-1018.88660	1435.00330	-1002.33008	-1061.80469	1107.13196	-1022.83826	-910.92719	1354.15393	-1024.00977	-876.09741	1178.31494	-929.67645	-1091.19897	1269.32166	-1182.37659	-974.09052	1384.38062	-1248.38635	-1017.63232	1186.35413	-1258.58777	-1047.36243	1078.29675	-1286.32764	-1051.75757	928.75427	-1255.49292	-1002.62848	805.16705	-1284.50732	-1069.81201	810.78400	-1291.43945	-1041.67542	724.06775	-860.43622	-946.04706	1393.89063	-765.60760	-966.38538	1196.22168	-750.47791	-944.00812	1076.24451	-734.63550	-908.40521	961.51605	-772.76160	-830.00958	834.28833	-726.39911	-878.16382	827.69592	-728.88318	-829.17566	759.28418	-1109.27441	-882.11670	952.13965	-892.12701	-892.14215	949.47217	-1087.53247	-1042.79761	970.70056	-918.94196	-1040.74255	972.98059	-1182.82776	-875.48560	645.44647	-1154.48389	-819.41882	495.66861	-1160.66211	-779.88300	242.05144	-1126.34875	-729.32733	74.86801	-1081.21387	-764.97314	46.97717	-1112.83093	-584.55231	85.70908	-849.53717	-974.99390	612.36029	-873.48944	-993.14893	486.78342	-877.66467	-1114.15808	244.60275	-922.19501	-1189.20007	72.52706	-964.11609	-1237.44653	53.39751	-922.99268	-1044.67432	31.38695	-1022.10645	-982.53595	1685.37109															 
2	0.010	-1078.51123	-872.72626	1644.37695	-948.56311	-878.79889	1633.25708	-1084.64075	-1008.10651	1591.66577	-955.14819	-1011.07391	1585.98682	-1021.30609	-1012.14099	1433.50244	-1003.50555	-1054.04578	1105.53235	-1024.40161	-903.99146	1352.94836	-1025.27637	-868.53003	1177.20447	-930.85419	-1083.87793	1267.75061	-1184.00378	-967.40887	1382.92554	-1249.55469	-1011.52039	1184.95215	-1259.33398	-1041.32739	1076.75305	-1286.80603	-1046.33484	927.28986	-1256.08630	-997.30084	803.59808	-1284.59827	-1064.57654	809.26147	-1290.65503	-1040.44958	720.32416	-862.01746	-938.96075	1392.76013	-766.90887	-959.17456	1195.23926	-751.88062	-937.03760	1075.14685	-735.97375	-901.72626	960.31232	-774.10577	-823.77100	832.82886	-727.56836	-871.89636	826.44739	-730.10583	-823.01129	757.88910	-1109.88965	-873.49414	950.94159	-893.23151	-884.51221	947.95294	-1089.02856	-1034.33582	969.39008	-920.36615	-1033.20837	971.58661	-1183.95789	-867.43365	644.04218	-1155.70471	-812.42999	493.91949	-1162.71265	-774.76843	239.97667	-1128.63721	-726.42627	72.06296	-1084.97668	-762.24060	43.95434	-1113.05078	-582.04828	82.27601	-850.48462	-968.99823	611.10638	-874.19312	-987.75543	485.60413	-878.19141	-1111.73193	244.83510	-922.19604	-1188.74231	73.72605	-964.17224	-1236.96448	55.06259	-922.81964	-1044.64258	31.23440	-1024.09900	-976.17615	1684.01343															 
3	0.020	-1080.79858	-866.38226	1643.20251	-950.59912	-872.23145	1632.23376	-1086.56213	-1001.57001	1590.22363	-956.97473	-1004.41272	1584.74231	-1022.93451	-1005.38049	1431.98523	-1004.85870	-1046.06836	1103.87354	-1026.18774	-896.79828	1351.85291	-1026.68237	-860.69800	1176.21545	-932.17804	-1076.41565	1266.16455	-1185.57898	-960.73920	1381.34375	-1252.19556	-1005.79785	1183.83167	-1260.08472	-1035.24951	1075.39307	-1287.33093	-1040.63538	925.81708	-1256.68994	-991.63519	802.07214	-1284.90686	-1059.05444	807.87677	-1290.91943	-1035.09814	718.83313	-863.66479	-931.88531	1391.67432	-768.33936	-951.84625	1194.24036	-753.38605	-930.07971	1074.12219	-737.36914	-895.12079	959.19025	-775.39050	-817.53320	831.39221	-728.82306	-865.64612	825.20599	-731.33594	-816.79871	756.36597	-1110.83093	-864.79810	949.68982	-894.17749	-876.89203	946.55762	-1090.69043	-1025.57483	968.12524	-922.00049	-1025.54932	970.25238	-1184.95325	-859.43860	642.51514	-1156.76184	-805.68134	491.89365	-1164.74902	-770.43280	237.51875	-1130.67725	-724.28156	68.62392	-1087.78577	-761.01367	40.99729	-1113.76807	-580.32654	78.10609	-851.42371	-962.88916	609.98413	-874.69275	-982.12451	484.53781	-878.62683	-1108.94604	245.11432	-922.21893	-1188.10278	74.98176	-964.19189	-1236.58521	56.96058	-922.91248	-1044.61243	31.22707	-1026.24829	-969.66858	1682.81995															 
4	0.030	-1082.66602	-859.70349	1642.01941	-952.71930	-865.58240	1631.26282	-1088.50513	-995.03174	1588.86914	-958.93951	-997.68536	1583.62744	-1024.70410	-998.52490	1430.59912	-1006.39880	-1037.86438	1102.27759	-1027.63159	-889.63788	1350.69739	-1028.07458	-852.82587	1175.24036	-933.64313	-1068.89441	1264.50488	-1187.29883	-953.90045	1379.95044	-1251.38440	-998.37457	1181.96106	-1260.86096	-1028.93933	1074.05200	-1287.95288	-1034.56763	924.39709	-1257.58533	-985.69916	800.78876	-1285.41089	-1053.22717	806.54871	-1291.20007	-1029.38098	717.30548	-865.38593	-924.78143	1390.61865	-769.79498	-944.63062	1193.32544	-754.90997	-923.18268	1073.07507	-738.77032	-888.59033	958.08551	-776.65210	-811.37213	830.01440	-730.04657	-859.44312	824.00098	-732.53064	-810.87811	755.01215	-1111.64404	-855.81976	948.38702	-895.06537	-869.22351	945.23914	-1092.59839	-1016.97864	966.93036	-923.79742	-1017.79706	969.04083	-1186.14050	-851.39130	640.96820	-1158.04175	-799.26520	489.86044	-1166.19995	-766.21423	235.13565	-1130.75000	-722.93457	65.31207	-1087.63123	-759.87122	39.88416	-1115.93689	-579.06915	71.63186	-852.28699	-956.56311	608.98059	-875.40021	-976.33264	483.45544	-878.99231	-1105.96204	245.51303	-922.16968	-1187.53369	76.48985	-964.22119	-1236.10938	58.95047	-922.74133	-1044.57422	31.06568	-1028.34509	-963.21936	1681.61768															 
5	0.040	-1085.67615	-853.61926	1641.49219	-954.74493	-858.95044	1630.62024	-1090.47546	-988.32990	1587.71228	-960.88837	-990.92664	1582.56995	-1026.50452	-991.59033	1429.29395	-1008.30634	-1029.43005	1100.80054	-1029.60059	-882.15277	1349.96082	-1029.60547	-844.73370	1174.45874	-935.40436	-1061.36475	1262.91309	-1189.11255	-946.86334	1378.61914	-1252.63721	-991.56989	1180.69067	-1261.76147	-1022.38342	1072.81140	-1288.66345	-1028.29309	923.06982	-1258.13904	-979.05945	799.38861	-1285.70557	-1046.83704	805.15363	-1292.40039	-1022.12616	716.70050	-867.14697	-917.66321	1389.71765	-771.38080	-937.32617	1192.46216	-756.41644	-916.40955	1072.16565	-740.18109	-882.11346	957.04297	-777.95667	-805.31256	828.65289	-731.30847	-853.30334	822.86066	-733.79022	-804.96539	753.76318	-1112.55090	-846.95477	947.11316	-896.19409	-861.29321	944.11359	-1094.81982	-1008.39679	966.14917	-925.67902	-1010.04297	968.09430	-1187.56799	-843.47797	639.59833	-1159.65137	-793.48834	488.02121	-1165.83118	-762.70288	232.97466	-1130.57251	-720.45343	65.13688	-1086.10583	-757.15015	41.47474	-1119.04102	-575.72284	64.66206	-853.25476	-949.99866	608.01544	-876.17200	-970.03003	482.48801	-879.34039	-1102.77637	246.11739	-921.94354	-1186.67480	78.17648	-963.89673	-1235.57446	61.33784	-922.86011	-1044.41821	31.04261	-1030.46912	-956.74658	1680.50647															 
